<svg width="136" height="35" viewBox="0 0 136 35" fill="none" xmlns="http://www.w3.org/2000/svg">
<g clip-path="url(#clip0_4_68)">
<path d="M66.4167 10.7241L65.15 10.2491V10.6426L66.4167 11.1176V10.7241Z" fill="#494949"/>
<path d="M66.4167 9.87963L65.15 9.40463V9.79814L66.4167 10.2731V9.87963Z" fill="#494949"/>
<path d="M65.1344 8.94778L66.4167 9.42869V9.3111C66.4167 8.1673 66.0882 7.20295 65.5722 6.64899V4.66666H65.15V6.31459C64.9533 6.20587 64.7411 6.14443 64.5167 6.14443H64.3056V7.4111H64.5167C64.6579 7.4111 65.0533 7.95344 65.1344 8.94778Z" fill="#494949"/>
<path d="M65.15 11.487L66.4167 11.962V11.5685L65.15 11.0935V11.487Z" fill="#494949"/>
<path d="M68.8459 13.9555H70.6389C70.6389 15.1196 69.6919 16.0667 68.5278 16.0667C67.3637 16.0667 66.4167 15.1196 66.4167 13.9555V12.413L65.15 11.938V12.2667C65.15 12.7324 64.7713 13.1111 64.3056 13.1111C64.1888 13.1111 64.0945 13.2057 64.0945 13.3222C64.0945 13.4387 64.1888 13.5333 64.3056 13.5333C64.6303 13.5333 64.9256 13.4096 65.15 13.2082V13.9555C65.15 15.818 66.6654 17.3333 68.5278 17.3333C70.3902 17.3333 71.9056 15.818 71.9056 13.9555V12.0475L68.8459 13.9555Z" fill="#494949"/>
</g>
<circle cx="68" cy="11" r="10.5" stroke="#494949"/>
<path d="M7.71303 32H5.68449L5.1573 30.2924H2.56719L2.02854 32H0.0458427L2.70472 24.436H5.06562L7.71303 32ZM2.93393 28.9515H4.79056L3.86225 25.8915L2.93393 28.9515ZM8.4552 32V26.2697H10.1743L10.2545 27.5074C10.3997 27.0796 10.6136 26.7472 10.8963 26.5103C11.1867 26.2735 11.5534 26.1551 11.9966 26.1551C12.1417 26.1551 12.264 26.1665 12.3633 26.1894C12.4703 26.2124 12.5543 26.2429 12.6154 26.2811L12.4206 27.8856C12.3442 27.8551 12.2449 27.8321 12.1226 27.8169C12.008 27.7939 11.8667 27.7825 11.6986 27.7825C11.4694 27.7825 11.2554 27.8321 11.0568 27.9315C10.8581 28.0308 10.6977 28.1798 10.5754 28.3784C10.4608 28.5694 10.4035 28.8139 10.4035 29.1119V32H8.4552ZM18.8036 24.7339L18.964 26.0404C18.9182 26.0252 18.8723 26.0175 18.8265 26.0175C18.7806 26.0099 18.7348 26.0061 18.689 26.0061C18.3528 26.0061 18.1006 26.0901 17.9326 26.2582C17.7721 26.4187 17.6919 26.6211 17.6919 26.8656L17.0042 26.6135C17.0042 26.3002 17.0615 25.9984 17.1761 25.7081C17.2908 25.4178 17.4665 25.1809 17.7033 24.9975C17.9478 24.8142 18.2535 24.7225 18.6202 24.7225C18.6431 24.7225 18.6699 24.7225 18.7004 24.7225C18.7386 24.7225 18.773 24.7263 18.8036 24.7339ZM16.8323 30.7279C17.497 30.7279 18.0051 30.8692 18.3566 31.1519C18.7157 31.427 18.8953 31.8243 18.8953 32.3438C18.8953 32.8175 18.7654 33.211 18.5056 33.5243C18.2458 33.8375 17.8791 34.0706 17.4054 34.2234C16.9393 34.3838 16.3854 34.464 15.7436 34.464C14.7045 34.464 13.9557 34.3342 13.4973 34.0744C13.0388 33.8146 12.8096 33.4631 12.8096 33.02C12.8096 32.6991 12.9395 32.4393 13.1993 32.2407C13.4591 32.042 13.8908 31.9351 14.4944 31.9198L14.4485 32.1031C13.9824 32.042 13.6348 31.9045 13.4056 31.6906C13.1764 31.4766 13.0618 31.1863 13.0618 30.8196C13.0618 30.4528 13.2069 30.1548 13.4973 29.9256C13.7876 29.6964 14.1735 29.5703 14.6548 29.5474L15.3654 29.8798H15.182C14.884 29.8951 14.6739 29.9447 14.5517 30.0288C14.4294 30.1128 14.3683 30.216 14.3683 30.3382C14.3683 30.4681 14.4218 30.5674 14.5287 30.6362C14.6357 30.6973 14.7961 30.7279 15.0101 30.7279H16.8323ZM15.755 33.2034C16.1218 33.2034 16.4236 33.1766 16.6604 33.1231C16.9049 33.0773 17.0883 33.0085 17.2105 32.9169C17.3328 32.8328 17.3939 32.7335 17.3939 32.6189C17.3939 32.5043 17.3519 32.4126 17.2678 32.3438C17.1838 32.2827 17.031 32.2521 16.8094 32.2521H14.7579C14.6128 32.2521 14.4944 32.2903 14.4027 32.3667C14.3186 32.4431 14.2766 32.5387 14.2766 32.6533C14.2766 32.829 14.4065 32.9627 14.6663 33.0544C14.926 33.1537 15.289 33.2034 15.755 33.2034ZM15.8238 26.1551C16.4045 26.1551 16.9011 26.2315 17.3137 26.3843C17.7263 26.5371 18.0395 26.7587 18.2535 27.049C18.475 27.3317 18.5858 27.6831 18.5858 28.1034C18.5858 28.516 18.475 28.8674 18.2535 29.1578C18.0395 29.4481 17.7263 29.6697 17.3137 29.8225C16.9011 29.9676 16.4045 30.0402 15.8238 30.0402C14.9146 30.0402 14.2231 29.8721 13.7494 29.536C13.2833 29.1998 13.0503 28.7222 13.0503 28.1034C13.0503 27.6831 13.1573 27.3317 13.3712 27.049C13.5928 26.7587 13.9099 26.5371 14.3224 26.3843C14.735 26.2315 15.2355 26.1551 15.8238 26.1551ZM15.8238 27.2667C15.5717 27.2667 15.3654 27.3393 15.2049 27.4845C15.0521 27.6297 14.9757 27.836 14.9757 28.1034C14.9757 28.3631 15.0521 28.5656 15.2049 28.7108C15.3654 28.856 15.5717 28.9285 15.8238 28.9285C16.0683 28.9285 16.2708 28.856 16.4312 28.7108C16.5917 28.5656 16.6719 28.3631 16.6719 28.1034C16.6719 27.836 16.5917 27.6297 16.4312 27.4845C16.2708 27.3393 16.0683 27.2667 15.8238 27.2667ZM22.4661 32.1146C21.8319 32.1146 21.2818 31.9962 20.8157 31.7593C20.3573 31.5225 20.002 31.1825 19.7499 30.7393C19.4977 30.2962 19.3717 29.7613 19.3717 29.1348C19.3717 28.5083 19.4977 27.9735 19.7499 27.5303C20.002 27.0872 20.3535 26.7472 20.8043 26.5103C21.2627 26.2735 21.7861 26.1551 22.3744 26.1551C22.978 26.1551 23.4899 26.2735 23.9101 26.5103C24.338 26.7396 24.6627 27.0604 24.8843 27.473C25.1058 27.878 25.2166 28.344 25.2166 28.8712C25.2166 29.0088 25.2128 29.1463 25.2052 29.2838C25.1975 29.4213 25.1861 29.536 25.1708 29.6276H20.6323V28.5847H24.3112L23.3829 28.94C23.3829 28.4816 23.2989 28.1301 23.1308 27.8856C22.9703 27.6411 22.7182 27.5189 22.3744 27.5189C22.1299 27.5189 21.9198 27.5762 21.744 27.6908C21.5759 27.8054 21.4461 27.9849 21.3544 28.2294C21.2703 28.4739 21.2283 28.7872 21.2283 29.1692C21.2283 29.5436 21.278 29.8492 21.3773 30.0861C21.4766 30.3153 21.618 30.4834 21.8013 30.5903C21.9847 30.6897 22.2063 30.7393 22.4661 30.7393C22.7564 30.7393 22.9856 30.682 23.1537 30.5674C23.3294 30.4528 23.4593 30.2924 23.5434 30.0861L25.102 30.6018C24.995 30.9303 24.8079 31.2092 24.5404 31.4384C24.2807 31.66 23.9674 31.8281 23.6007 31.9427C23.2416 32.0573 22.8634 32.1146 22.4661 32.1146ZM26.3065 32V26.2697H28.0486L28.1517 28.2409L27.934 28.0231C28.0104 27.6106 28.1441 27.2667 28.3351 26.9917C28.5337 26.7166 28.7782 26.5103 29.0686 26.3728C29.3665 26.2276 29.6989 26.1551 30.0656 26.1551C30.463 26.1551 30.8068 26.2315 31.0971 26.3843C31.3951 26.5371 31.6281 26.7625 31.7962 27.0604C31.9643 27.3584 32.0483 27.7328 32.0483 28.1836V32H30.1V28.6993C30.1 28.302 30.0236 28.027 29.8708 27.8742C29.718 27.7213 29.5232 27.6449 29.2863 27.6449C29.103 27.6449 28.931 27.6908 28.7706 27.7825C28.6101 27.8665 28.4841 28.004 28.3924 28.1951C28.3007 28.3861 28.2549 28.642 28.2549 28.9629V32H26.3065ZM35.7752 24.4474V29.96C35.7752 30.2351 35.8402 30.4337 35.97 30.556C36.1076 30.6706 36.2948 30.7279 36.5316 30.7279C36.715 30.7279 36.8716 30.7088 37.0015 30.6706C37.139 30.6247 37.2613 30.5598 37.3682 30.4757L37.5745 31.6791C37.3835 31.8166 37.1429 31.9236 36.8525 32C36.5622 32.0764 36.2642 32.1146 35.9586 32.1146C35.5231 32.1146 35.1449 32.0535 34.824 31.9312C34.5107 31.809 34.2662 31.6142 34.0905 31.3467C33.9224 31.0793 33.8345 30.724 33.8269 30.2809V24.9861L35.7752 24.4474ZM37.4829 26.2697V27.6564H32.8413V26.2697H37.4829ZM39.3569 25.6049C38.9596 25.6049 38.6693 25.5324 38.4859 25.3872C38.3102 25.2344 38.2223 24.9975 38.2223 24.6766C38.2223 24.3481 38.3102 24.1112 38.4859 23.9661C38.6693 23.8133 38.9596 23.7369 39.3569 23.7369C39.7466 23.7369 40.0331 23.8133 40.2165 23.9661C40.3999 24.1112 40.4915 24.3481 40.4915 24.6766C40.4915 24.9975 40.3999 25.2344 40.2165 25.3872C40.0331 25.5324 39.7466 25.6049 39.3569 25.6049ZM40.3311 26.2697V32H38.3828V26.2697H40.3311ZM41.718 32V26.2697H43.46L43.5632 28.2409L43.3454 28.0231C43.4218 27.6106 43.5555 27.2667 43.7466 26.9917C43.9452 26.7166 44.1897 26.5103 44.48 26.3728C44.778 26.2276 45.1104 26.1551 45.4771 26.1551C45.8744 26.1551 46.2182 26.2315 46.5086 26.3843C46.8066 26.5371 47.0396 26.7625 47.2077 27.0604C47.3758 27.3584 47.4598 27.7328 47.4598 28.1836V32H45.5115V28.6993C45.5115 28.302 45.4351 28.027 45.2823 27.8742C45.1295 27.7213 44.9346 27.6449 44.6978 27.6449C44.5144 27.6449 44.3425 27.6908 44.1821 27.7825C44.0216 27.8665 43.8955 28.004 43.8039 28.1951C43.7122 28.3861 43.6663 28.642 43.6663 28.9629V32H41.718ZM52.0225 28.367C52.0225 28.0996 51.9461 27.8894 51.7933 27.7366C51.6481 27.5762 51.4495 27.496 51.1973 27.496C50.9452 27.496 50.7275 27.5609 50.5441 27.6908C50.3683 27.813 50.2461 28.0346 50.1773 28.3555L48.527 27.9658C48.634 27.4157 48.9167 26.9764 49.3751 26.6479C49.8335 26.3193 50.4791 26.1551 51.3119 26.1551C51.8697 26.1551 52.3434 26.2391 52.7331 26.4072C53.1304 26.5676 53.4322 26.8121 53.6385 27.1407C53.8524 27.4616 53.9594 27.8589 53.9594 28.3326V30.4299C53.9594 30.7279 54.0931 30.8769 54.3605 30.8769C54.498 30.8769 54.6088 30.8616 54.6928 30.831L54.5782 31.9427C54.349 32.0497 54.0701 32.1031 53.7416 32.1031C53.4436 32.1031 53.18 32.0573 52.9508 31.9656C52.7216 31.8663 52.5421 31.7211 52.4122 31.5301C52.2823 31.3315 52.2173 31.0831 52.2173 30.7852V30.7164L52.4351 30.6362C52.4351 30.9647 52.3358 31.2398 52.1371 31.4613C51.9461 31.6829 51.694 31.8472 51.3807 31.9542C51.0751 32.0611 50.7542 32.1146 50.418 32.1146C50.0283 32.1146 49.6883 32.0535 49.398 31.9312C49.1077 31.809 48.8823 31.6333 48.7218 31.404C48.569 31.1672 48.4926 30.8769 48.4926 30.533C48.4926 30.1204 48.6149 29.7804 48.8594 29.513C49.1115 29.238 49.505 29.047 50.0398 28.94L52.2059 28.493L52.1944 29.5245L51.0942 29.7537C50.865 29.7996 50.6931 29.8683 50.5785 29.96C50.4715 30.044 50.418 30.1739 50.418 30.3497C50.418 30.5178 50.4791 30.6438 50.6014 30.7279C50.7236 30.8119 50.8688 30.8539 51.0369 30.8539C51.1668 30.8539 51.289 30.8348 51.4036 30.7966C51.5259 30.7584 51.6328 30.7011 51.7245 30.6247C51.8162 30.5407 51.8888 30.4375 51.9423 30.3153C51.9958 30.193 52.0225 30.0479 52.0225 29.8798V28.367ZM64.6461 25.9602H60.738V27.5647H63.8553V29.089H60.738V32H58.7668V24.436H64.6461V25.9602ZM67.572 23.84V30.0517C67.572 30.3038 67.6141 30.4834 67.6981 30.5903C67.7822 30.6973 67.9235 30.7508 68.1222 30.7508C68.2368 30.7508 68.3323 30.7431 68.4087 30.7279C68.4851 30.7126 68.5768 30.6897 68.6837 30.6591L68.5577 31.8281C68.4201 31.9121 68.2406 31.9809 68.019 32.0344C67.7974 32.0879 67.5797 32.1146 67.3658 32.1146C66.7545 32.1146 66.3114 31.9733 66.0363 31.6906C65.7613 31.4079 65.6237 30.9456 65.6237 30.3038V23.84H67.572ZM74.9705 26.2697L72.8846 32C72.6707 32.6036 72.4376 33.0849 72.1855 33.444C71.9334 33.8031 71.6354 34.0629 71.2916 34.2234C70.9478 34.3838 70.5352 34.464 70.0538 34.464C69.7329 34.464 69.4388 34.4297 69.1713 34.3609C68.9039 34.2921 68.6709 34.1966 68.4722 34.0744L68.8619 32.7564C68.9994 32.8557 69.1446 32.9245 69.2974 32.9627C69.4502 33.0085 69.6451 33.0315 69.8819 33.0315C70.1035 33.0315 70.283 32.9933 70.4206 32.9169C70.5657 32.8404 70.6803 32.6953 70.7644 32.4813L70.9134 32.1261L70.2487 30.5674L68.5296 26.2697H70.6727L71.5552 29.536L71.8302 30.7508L72.1511 29.4901L73.0336 26.2697H74.9705ZM76.6377 25.6049C76.2404 25.6049 75.9501 25.5324 75.7667 25.3872C75.591 25.2344 75.5031 24.9975 75.5031 24.6766C75.5031 24.3481 75.591 24.1112 75.7667 23.9661C75.9501 23.8133 76.2404 23.7369 76.6377 23.7369C77.0274 23.7369 77.3139 23.8133 77.4973 23.9661C77.6806 24.1112 77.7723 24.3481 77.7723 24.6766C77.7723 24.9975 77.6806 25.2344 77.4973 25.3872C77.3139 25.5324 77.0274 25.6049 76.6377 25.6049ZM77.6119 26.2697V32H75.6635V26.2697H77.6119ZM78.9988 32V26.2697H80.7408L80.844 28.2409L80.6262 28.0231C80.7026 27.6106 80.8363 27.2667 81.0273 26.9917C81.226 26.7166 81.4705 26.5103 81.7608 26.3728C82.0588 26.2276 82.3911 26.1551 82.7579 26.1551C83.1552 26.1551 83.499 26.2315 83.7893 26.3843C84.0873 26.5371 84.3204 26.7625 84.4884 27.0604C84.6565 27.3584 84.7406 27.7328 84.7406 28.1836V32H82.7923V28.6993C82.7923 28.302 82.7159 28.027 82.5631 27.8742C82.4102 27.7213 82.2154 27.6449 81.9786 27.6449C81.7952 27.6449 81.6233 27.6908 81.4628 27.7825C81.3024 27.8665 81.1763 28.004 81.0846 28.1951C80.9929 28.3861 80.9471 28.642 80.9471 28.9629V32H78.9988ZM91.6527 24.7339L91.8132 26.0404C91.7673 26.0252 91.7215 26.0175 91.6756 26.0175C91.6298 26.0099 91.584 26.0061 91.5381 26.0061C91.2019 26.0061 90.9498 26.0901 90.7817 26.2582C90.6213 26.4187 90.541 26.6211 90.541 26.8656L89.8534 26.6135C89.8534 26.3002 89.9107 25.9984 90.0253 25.7081C90.1399 25.4178 90.3156 25.1809 90.5525 24.9975C90.797 24.8142 91.1026 24.7225 91.4693 24.7225C91.4923 24.7225 91.519 24.7225 91.5496 24.7225C91.5878 24.7225 91.6222 24.7263 91.6527 24.7339ZM89.6815 30.7279C90.3462 30.7279 90.8543 30.8692 91.2057 31.1519C91.5648 31.427 91.7444 31.8243 91.7444 32.3438C91.7444 32.8175 91.6145 33.211 91.3547 33.5243C91.095 33.8375 90.7282 34.0706 90.2545 34.2234C89.7884 34.3838 89.2345 34.464 88.5927 34.464C87.5536 34.464 86.8048 34.3342 86.3464 34.0744C85.888 33.8146 85.6588 33.4631 85.6588 33.02C85.6588 32.6991 85.7887 32.4393 86.0484 32.2407C86.3082 32.042 86.7399 31.9351 87.3435 31.9198L87.2977 32.1031C86.8316 32.042 86.484 31.9045 86.2547 31.6906C86.0255 31.4766 85.9109 31.1863 85.9109 30.8196C85.9109 30.4528 86.0561 30.1548 86.3464 29.9256C86.6368 29.6964 87.0226 29.5703 87.504 29.5474L88.2145 29.8798H88.0311C87.7332 29.8951 87.5231 29.9447 87.4008 30.0288C87.2786 30.1128 87.2174 30.216 87.2174 30.3382C87.2174 30.4681 87.2709 30.5674 87.3779 30.6362C87.4848 30.6973 87.6453 30.7279 87.8592 30.7279H89.6815ZM88.6042 33.2034C88.9709 33.2034 89.2727 33.1766 89.5096 33.1231C89.7541 33.0773 89.9374 33.0085 90.0597 32.9169C90.1819 32.8328 90.2431 32.7335 90.2431 32.6189C90.2431 32.5043 90.201 32.4126 90.117 32.3438C90.0329 32.2827 89.8801 32.2521 89.6586 32.2521H87.6071C87.4619 32.2521 87.3435 32.2903 87.2518 32.3667C87.1678 32.4431 87.1257 32.5387 87.1257 32.6533C87.1257 32.829 87.2556 32.9627 87.5154 33.0544C87.7752 33.1537 88.1381 33.2034 88.6042 33.2034ZM88.6729 26.1551C89.2536 26.1551 89.7502 26.2315 90.1628 26.3843C90.5754 26.5371 90.8887 26.7587 91.1026 27.049C91.3242 27.3317 91.435 27.6831 91.435 28.1034C91.435 28.516 91.3242 28.8674 91.1026 29.1578C90.8887 29.4481 90.5754 29.6697 90.1628 29.8225C89.7502 29.9676 89.2536 30.0402 88.6729 30.0402C87.7637 30.0402 87.0723 29.8721 86.5986 29.536C86.1325 29.1998 85.8995 28.7222 85.8995 28.1034C85.8995 27.6831 86.0064 27.3317 86.2204 27.049C86.4419 26.7587 86.759 26.5371 87.1716 26.3843C87.5842 26.2315 88.0846 26.1551 88.6729 26.1551ZM88.6729 27.2667C88.4208 27.2667 88.2145 27.3393 88.0541 27.4845C87.9013 27.6297 87.8248 27.836 87.8248 28.1034C87.8248 28.3631 87.9013 28.5656 88.0541 28.7108C88.2145 28.856 88.4208 28.9285 88.6729 28.9285C88.9174 28.9285 89.1199 28.856 89.2804 28.7108C89.4408 28.5656 89.521 28.3631 89.521 28.1034C89.521 27.836 89.4408 27.6297 89.2804 27.4845C89.1199 27.3393 88.9174 27.2667 88.6729 27.2667ZM101.815 25.9602H97.9068V27.5647H101.024V29.089H97.9068V32H95.9356V24.436H101.815V25.9602ZM103.79 25.6049C103.392 25.6049 103.102 25.5324 102.919 25.3872C102.743 25.2344 102.655 24.9975 102.655 24.6766C102.655 24.3481 102.743 24.1112 102.919 23.9661C103.102 23.8133 103.392 23.7369 103.79 23.7369C104.179 23.7369 104.466 23.8133 104.649 23.9661C104.833 24.1112 104.924 24.3481 104.924 24.6766C104.924 24.9975 104.833 25.2344 104.649 25.3872C104.466 25.5324 104.179 25.6049 103.79 25.6049ZM104.764 26.2697V32H102.816V26.2697H104.764ZM108.557 32.1146C107.984 32.1146 107.45 32.0229 106.953 31.8396C106.464 31.6485 106.059 31.3773 105.738 31.0258L106.655 29.9485C106.846 30.193 107.098 30.3993 107.411 30.5674C107.732 30.7279 108.088 30.8081 108.477 30.8081C108.714 30.8081 108.909 30.7737 109.062 30.7049C109.215 30.6362 109.291 30.5292 109.291 30.384C109.291 30.2771 109.253 30.193 109.176 30.1319C109.1 30.0631 108.947 30.0058 108.718 29.96L107.916 29.7996C107.197 29.6544 106.686 29.4404 106.38 29.1578C106.082 28.8674 105.933 28.4892 105.933 28.0231C105.933 27.7099 106.028 27.4119 106.22 27.1292C106.411 26.8389 106.705 26.6058 107.102 26.4301C107.499 26.2467 108.007 26.1551 108.626 26.1551C109.207 26.1551 109.719 26.2391 110.162 26.4072C110.605 26.5753 110.957 26.8198 111.216 27.1407L110.288 28.1951C110.105 27.9658 109.868 27.7863 109.577 27.6564C109.287 27.5265 108.997 27.4616 108.706 27.4616C108.523 27.4616 108.366 27.4807 108.237 27.5189C108.114 27.5494 108.023 27.5953 107.962 27.6564C107.9 27.7175 107.87 27.7939 107.87 27.8856C107.87 27.9849 107.916 28.0728 108.007 28.1492C108.107 28.218 108.286 28.2791 108.546 28.3326L109.589 28.5389C110.177 28.6458 110.601 28.8407 110.861 29.1234C111.121 29.4061 111.251 29.7461 111.251 30.1434C111.251 30.5178 111.151 30.8539 110.953 31.1519C110.754 31.4499 110.456 31.6867 110.059 31.8625C109.662 32.0306 109.161 32.1146 108.557 32.1146ZM112.262 32V23.84H114.21V27.3126C114.378 26.9306 114.619 26.644 114.932 26.453C115.245 26.2544 115.608 26.1551 116.021 26.1551C116.418 26.1551 116.762 26.2315 117.052 26.3843C117.35 26.5371 117.583 26.7625 117.751 27.0604C117.919 27.3584 118.003 27.7328 118.003 28.1836V32H116.055V28.7222C116.055 28.3097 115.979 28.027 115.826 27.8742C115.681 27.7137 115.486 27.6335 115.241 27.6335C115.058 27.6335 114.886 27.6793 114.726 27.771C114.565 27.8627 114.439 28.0079 114.347 28.2065C114.256 28.4052 114.21 28.6649 114.21 28.9858V32H112.262ZM120.343 25.6049C119.945 25.6049 119.655 25.5324 119.472 25.3872C119.296 25.2344 119.208 24.9975 119.208 24.6766C119.208 24.3481 119.296 24.1112 119.472 23.9661C119.655 23.8133 119.945 23.7369 120.343 23.7369C120.732 23.7369 121.019 23.8133 121.202 23.9661C121.386 24.1112 121.477 24.3481 121.477 24.6766C121.477 24.9975 121.386 25.2344 121.202 25.3872C121.019 25.5324 120.732 25.6049 120.343 25.6049ZM121.317 26.2697V32H119.369V26.2697H121.317ZM122.704 32V26.2697H124.446L124.549 28.2409L124.331 28.0231C124.408 27.6106 124.541 27.2667 124.732 26.9917C124.931 26.7166 125.175 26.5103 125.466 26.3728C125.764 26.2276 126.096 26.1551 126.463 26.1551C126.86 26.1551 127.204 26.2315 127.494 26.3843C127.792 26.5371 128.025 26.7625 128.193 27.0604C128.362 27.3584 128.446 27.7328 128.446 28.1836V32H126.497V28.6993C126.497 28.302 126.421 28.027 126.268 27.8742C126.115 27.7213 125.92 27.6449 125.684 27.6449C125.5 27.6449 125.328 27.6908 125.168 27.7825C125.007 27.8665 124.881 28.004 124.79 28.1951C124.698 28.3861 124.652 28.642 124.652 28.9629V32H122.704ZM135.358 24.7339L135.518 26.0404C135.472 26.0252 135.426 26.0175 135.381 26.0175C135.335 26.0099 135.289 26.0061 135.243 26.0061C134.907 26.0061 134.655 26.0901 134.487 26.2582C134.326 26.4187 134.246 26.6211 134.246 26.8656L133.558 26.6135C133.558 26.3002 133.616 25.9984 133.73 25.7081C133.845 25.4178 134.021 25.1809 134.258 24.9975C134.502 24.8142 134.808 24.7225 135.174 24.7225C135.197 24.7225 135.224 24.7225 135.255 24.7225C135.293 24.7225 135.327 24.7263 135.358 24.7339ZM133.386 30.7279C134.051 30.7279 134.559 30.8692 134.911 31.1519C135.27 31.427 135.449 31.8243 135.449 32.3438C135.449 32.8175 135.32 33.211 135.06 33.5243C134.8 33.8375 134.433 34.0706 133.96 34.2234C133.493 34.3838 132.94 34.464 132.298 34.464C131.259 34.464 130.51 34.3342 130.051 34.0744C129.593 33.8146 129.364 33.4631 129.364 33.02C129.364 32.6991 129.494 32.4393 129.753 32.2407C130.013 32.042 130.445 31.9351 131.049 31.9198L131.003 32.1031C130.537 32.042 130.189 31.9045 129.96 31.6906C129.731 31.4766 129.616 31.1863 129.616 30.8196C129.616 30.4528 129.761 30.1548 130.051 29.9256C130.342 29.6964 130.728 29.5703 131.209 29.5474L131.92 29.8798H131.736C131.438 29.8951 131.228 29.9447 131.106 30.0288C130.984 30.1128 130.922 30.216 130.922 30.3382C130.922 30.4681 130.976 30.5674 131.083 30.6362C131.19 30.6973 131.35 30.7279 131.564 30.7279H133.386ZM132.309 33.2034C132.676 33.2034 132.978 33.1766 133.215 33.1231C133.459 33.0773 133.642 33.0085 133.765 32.9169C133.887 32.8328 133.948 32.7335 133.948 32.6189C133.948 32.5043 133.906 32.4126 133.822 32.3438C133.738 32.2827 133.585 32.2521 133.364 32.2521H131.312C131.167 32.2521 131.049 32.2903 130.957 32.3667C130.873 32.4431 130.831 32.5387 130.831 32.6533C130.831 32.829 130.961 32.9627 131.22 33.0544C131.48 33.1537 131.843 33.2034 132.309 33.2034ZM132.378 26.1551C132.959 26.1551 133.455 26.2315 133.868 26.3843C134.28 26.5371 134.594 26.7587 134.808 27.049C135.029 27.3317 135.14 27.6831 135.14 28.1034C135.14 28.516 135.029 28.8674 134.808 29.1578C134.594 29.4481 134.28 29.6697 133.868 29.8225C133.455 29.9676 132.959 30.0402 132.378 30.0402C131.469 30.0402 130.777 29.8721 130.304 29.536C129.838 29.1998 129.604 28.7222 129.604 28.1034C129.604 27.6831 129.711 27.3317 129.925 27.049C130.147 26.7587 130.464 26.5371 130.877 26.3843C131.289 26.2315 131.79 26.1551 132.378 26.1551ZM132.378 27.2667C132.126 27.2667 131.92 27.3393 131.759 27.4845C131.606 27.6297 131.53 27.836 131.53 28.1034C131.53 28.3631 131.606 28.5656 131.759 28.7108C131.92 28.856 132.126 28.9285 132.378 28.9285C132.622 28.9285 132.825 28.856 132.985 28.7108C133.146 28.5656 133.226 28.3631 133.226 28.1034C133.226 27.836 133.146 27.6297 132.985 27.4845C132.825 27.3393 132.622 27.2667 132.378 27.2667Z" fill="#494949"/>
<defs>
<clipPath id="clip0_4_68">
<rect width="12.6667" height="12.6667" fill="white" transform="translate(61.6667 4.66666)"/>
</clipPath>
</defs>
</svg>
