<svg width="136" height="35" fill="none" xmlns="http://www.w3.org/2000/svg"><g clip-path="url('#clip0_4_68')" fill="#494949"><path d="m66.417 10.724-1.267-.475v.394l1.267.475v-.394ZM66.417 9.88l-1.267-.475v.393l1.267.475V9.88ZM65.134 8.948l1.283.48v-.117c0-1.144-.329-2.108-.845-2.662V4.667h-.422v1.648a1.299 1.299 0 0 0-.633-.17h-.211V7.41h.21c.142 0 .537.542.618 1.537ZM65.15 11.487l1.267.475v-.393l-1.267-.476v.394Z"/><path d="M68.846 13.956h1.793a2.114 2.114 0 0 1-2.111 2.11 2.114 2.114 0 0 1-2.111-2.11v-1.543l-1.267-.475v.329a.845.845 0 0 1-.844.844.211.211 0 1 0 0 .422c.324 0 .62-.123.844-.325v.748a3.382 3.382 0 0 0 3.378 3.377 3.382 3.382 0 0 0 3.378-3.377v-1.909l-3.06 1.909Z"/></g><circle cx="68" cy="11" r="10.5" stroke="#494949"/><path d="M7.713 32H5.684l-.527-1.708h-2.59L2.03 32H.046l2.659-7.564h2.36L7.714 32Zm-4.78-3.049h1.858l-.929-3.06-.928 3.06ZM8.456 32v-5.73h1.72l.08 1.237c.145-.427.359-.76.641-.997.29-.237.657-.355 1.1-.355.146 0 .268.011.367.034a.797.797 0 0 1 .252.092l-.194 1.605a1.228 1.228 0 0 0-.298-.07 2.2 2.2 0 0 0-.424-.034c-.23 0-.444.05-.642.15-.199.099-.36.248-.482.446-.114.191-.171.436-.171.734V32H8.454Zm10.349-7.266.16 1.306a.435.435 0 0 0-.137-.023.84.84 0 0 0-.138-.01c-.336 0-.588.083-.756.251a.823.823 0 0 0-.241.608l-.688-.253c0-.313.057-.615.172-.905.115-.29.29-.527.527-.71.245-.184.55-.276.917-.276h.08c.039 0 .073.004.104.012Zm-1.972 5.994c.665 0 1.173.141 1.525.424.359.275.538.672.538 1.192 0 .474-.13.867-.39 1.18-.26.313-.626.547-1.1.7-.466.16-1.02.24-1.661.24-1.04 0-1.788-.13-2.247-.39-.458-.26-.687-.61-.687-1.054 0-.32.13-.58.39-.78.26-.198.69-.305 1.294-.32l-.046.183c-.466-.061-.813-.199-1.042-.412-.23-.214-.344-.505-.344-.871 0-.367.145-.665.435-.894.29-.23.677-.356 1.158-.379l.71.333h-.183c-.298.015-.508.065-.63.149-.123.084-.184.187-.184.31 0 .13.054.228.16.297.108.061.268.092.482.092h1.822Zm-1.077 2.475c.367 0 .669-.026.905-.08.245-.046.428-.114.55-.206.123-.084.184-.184.184-.298a.337.337 0 0 0-.126-.275c-.084-.061-.237-.092-.459-.092h-2.051a.536.536 0 0 0-.355.115.371.371 0 0 0-.126.286c0 .176.13.31.39.401.259.1.622.15 1.088.15Zm.069-7.048c.58 0 1.077.076 1.49.23.412.152.726.374.94.664.221.283.332.634.332 1.054 0 .413-.111.764-.332 1.055-.215.29-.528.512-.94.665-.413.145-.91.217-1.49.217-.91 0-1.6-.168-2.075-.504-.466-.336-.699-.814-.699-1.433 0-.42.107-.771.321-1.054.222-.29.539-.512.951-.665.413-.152.914-.229 1.502-.229Zm0 1.112a.887.887 0 0 0-.62.218c-.152.145-.228.351-.228.618 0 .26.076.463.229.608.16.145.367.218.619.218a.87.87 0 0 0 .607-.218c.16-.145.24-.348.24-.608 0-.267-.08-.473-.24-.619a.87.87 0 0 0-.607-.217Zm6.642 4.848c-.634 0-1.184-.119-1.65-.356a2.541 2.541 0 0 1-1.066-1.02c-.252-.443-.378-.978-.378-1.604 0-.627.126-1.162.378-1.605a2.559 2.559 0 0 1 1.054-1.02c.459-.237.982-.355 1.57-.355.604 0 1.116.118 1.536.355.428.23.753.55.974.963.222.405.333.871.333 1.398 0 .138-.004.275-.012.413-.007.137-.019.252-.034.344h-4.539v-1.043h3.68l-.93.355c0-.458-.083-.81-.251-1.054-.16-.245-.413-.367-.757-.367-.244 0-.454.057-.63.172-.168.114-.298.294-.39.538-.084.245-.126.558-.126.94 0 .375.05.68.15.917.099.23.24.397.423.504.184.1.405.15.665.15.29 0 .52-.058.688-.173.175-.114.305-.275.39-.48l1.558.515a1.83 1.83 0 0 1-.562.836c-.26.222-.573.39-.94.505a3.71 3.71 0 0 1-1.134.172Zm3.84-.115v-5.73h1.743l.103 1.97-.218-.217c.076-.412.21-.756.401-1.031.199-.275.443-.482.734-.62.297-.144.63-.217.997-.217.397 0 .74.076 1.031.23.298.152.531.377.7.675.167.298.251.673.251 1.124V32H30.1v-3.3c0-.398-.076-.673-.23-.826a.791.791 0 0 0-.584-.23c-.183 0-.355.047-.515.139a.87.87 0 0 0-.379.412c-.091.191-.137.447-.137.768V32h-1.948Zm9.47-7.553v5.513c0 .275.064.474.194.596.138.115.325.172.562.172.183 0 .34-.02.47-.057.137-.046.26-.111.366-.195l.206 1.203a2.173 2.173 0 0 1-.721.321c-.29.076-.589.115-.894.115-.436 0-.814-.062-1.135-.184a1.508 1.508 0 0 1-.733-.584c-.169-.268-.257-.623-.264-1.066v-5.295l1.948-.539Zm1.707 1.823v1.386H32.84V26.27h4.642Zm1.874-.665c-.397 0-.688-.073-.871-.218-.176-.153-.264-.39-.264-.71 0-.329.088-.566.264-.71.183-.154.474-.23.87-.23.39 0 .677.076.86.23.184.144.276.381.276.71 0 .32-.092.557-.275.71-.184.145-.47.218-.86.218Zm.974.665V32h-1.948v-5.73h1.948ZM41.718 32v-5.73h1.742l.103 1.97-.218-.217c.077-.412.21-.756.402-1.031.198-.275.443-.482.733-.62.298-.144.63-.217.997-.217.397 0 .741.076 1.032.23.298.152.53.377.699.675.168.298.252.673.252 1.124V32H45.51v-3.3c0-.398-.076-.673-.229-.826a.791.791 0 0 0-.584-.23c-.184 0-.355.047-.516.139a.87.87 0 0 0-.378.412c-.092.191-.138.447-.138.768V32h-1.948Zm10.304-3.633c0-.267-.076-.478-.229-.63-.145-.16-.343-.241-.596-.241a1.1 1.1 0 0 0-.653.195c-.176.122-.298.344-.367.665l-1.65-.39c.107-.55.39-.99.848-1.318.459-.329 1.104-.493 1.937-.493.558 0 1.031.084 1.421.252.397.16.7.405.906.734.213.32.32.718.32 1.192v2.097c0 .298.134.447.401.447a.992.992 0 0 0 .333-.046l-.115 1.112c-.229.107-.508.16-.836.16-.298 0-.562-.046-.791-.137a1.22 1.22 0 0 1-.539-.436c-.13-.199-.195-.447-.195-.745v-.069l.218-.08c0 .329-.1.604-.298.825a1.698 1.698 0 0 1-.756.493c-.306.107-.627.16-.963.16-.39 0-.73-.06-1.02-.183a1.521 1.521 0 0 1-.676-.527c-.153-.237-.23-.527-.23-.871 0-.413.123-.753.367-1.02.252-.275.646-.466 1.18-.573l2.167-.447-.012 1.032-1.1.229c-.229.046-.4.114-.516.206-.107.084-.16.214-.16.39 0 .168.061.294.183.378a.75.75 0 0 0 .436.126c.13 0 .252-.02.367-.057a.927.927 0 0 0 .32-.172.906.906 0 0 0 .218-.31 1.08 1.08 0 0 0 .08-.435v-1.513Zm12.624-2.407h-3.908v1.605h3.117v1.524h-3.117V32h-1.971v-7.564h5.88v1.524Zm2.926-2.12v6.212c0 .252.042.431.126.538.084.107.226.16.424.16.115 0 .21-.007.287-.022.076-.015.168-.038.275-.069l-.126 1.17a1.892 1.892 0 0 1-.539.205c-.222.054-.44.08-.653.08-.612 0-1.055-.14-1.33-.423-.275-.283-.412-.745-.412-1.387V23.84h1.948Zm7.398 2.43L72.886 32c-.214.604-.447 1.085-.7 1.444-.252.36-.55.619-.893.78-.344.16-.757.24-1.238.24a3.54 3.54 0 0 1-.883-.103 2.531 2.531 0 0 1-.699-.287l.39-1.318c.137.1.283.169.435.207.153.045.348.069.585.069.221 0 .401-.039.539-.115.145-.077.26-.222.343-.436l.15-.355-.665-1.559-1.72-4.297h2.144l.882 3.266.275 1.215.321-1.26.883-3.221h1.936Zm1.668-.665c-.398 0-.688-.073-.871-.218-.176-.153-.264-.39-.264-.71 0-.329.088-.566.264-.71.183-.154.473-.23.87-.23.39 0 .677.076.86.23.184.144.275.381.275.71 0 .32-.091.557-.275.71-.183.145-.47.218-.86.218Zm.974.665V32h-1.948v-5.73h1.948ZM78.999 32v-5.73h1.742l.103 1.97-.218-.217c.077-.412.21-.756.401-1.031a1.9 1.9 0 0 1 .734-.62c.298-.144.63-.217.997-.217.397 0 .741.076 1.031.23.298.152.531.377.7.675.167.298.252.673.252 1.124V32h-1.949v-3.3c0-.398-.076-.673-.229-.826a.792.792 0 0 0-.584-.23c-.184 0-.356.047-.516.139a.87.87 0 0 0-.378.412c-.092.191-.138.447-.138.768V32H79Zm12.654-7.266.16 1.306a.435.435 0 0 0-.137-.023.838.838 0 0 0-.138-.01c-.336 0-.588.083-.756.251a.824.824 0 0 0-.241.608l-.688-.253c0-.313.058-.615.172-.905.115-.29.29-.527.527-.71.245-.184.55-.276.917-.276h.08c.039 0 .073.004.104.012Zm-1.972 5.994c.665 0 1.173.141 1.525.424.359.275.538.672.538 1.192 0 .474-.13.867-.39 1.18-.259.313-.626.547-1.1.7-.466.16-1.02.24-1.661.24-1.04 0-1.788-.13-2.247-.39-.458-.26-.687-.61-.687-1.054 0-.32.13-.58.39-.78.26-.198.69-.305 1.294-.32l-.045.183c-.466-.061-.814-.199-1.043-.412-.23-.214-.344-.505-.344-.871 0-.367.145-.665.435-.894.29-.23.677-.356 1.158-.379l.71.333h-.183c-.298.015-.508.065-.63.149-.122.084-.184.187-.184.31 0 .13.054.228.16.297.108.061.268.092.482.092h1.823Zm-1.077 2.475c.367 0 .669-.026.906-.08.244-.046.427-.114.55-.206.122-.084.183-.184.183-.298a.338.338 0 0 0-.126-.275c-.084-.061-.237-.092-.458-.092h-2.052a.536.536 0 0 0-.355.115.371.371 0 0 0-.126.286c0 .176.13.31.39.401.26.1.622.15 1.088.15Zm.069-7.048c.58 0 1.077.076 1.49.23.412.152.726.374.94.664.221.283.332.634.332 1.054 0 .413-.11.764-.332 1.055-.214.29-.528.512-.94.665-.413.145-.91.217-1.49.217-.91 0-1.6-.168-2.074-.504-.467-.336-.7-.814-.7-1.433 0-.42.107-.771.321-1.054.222-.29.539-.512.952-.665.412-.152.913-.229 1.5-.229Zm0 1.112a.887.887 0 0 0-.619.218c-.153.145-.23.351-.23.618 0 .26.077.463.23.608.16.145.367.218.619.218a.871.871 0 0 0 .607-.218c.16-.145.241-.348.241-.608 0-.267-.08-.473-.24-.619a.871.871 0 0 0-.608-.217Zm13.142-1.307h-3.908v1.605h3.117v1.524h-3.117V32h-1.971v-7.564h5.879v1.524Zm1.975-.355c-.398 0-.688-.073-.871-.218-.176-.153-.264-.39-.264-.71 0-.329.088-.566.264-.71.183-.154.473-.23.871-.23.389 0 .676.076.859.23.184.144.275.381.275.71 0 .32-.091.557-.275.71-.183.145-.47.218-.859.218Zm.974.665V32h-1.948v-5.73h1.948Zm3.793 5.845a4.597 4.597 0 0 1-1.604-.275 3.184 3.184 0 0 1-1.215-.814l.917-1.078c.191.245.443.451.756.62.321.16.677.24 1.066.24.237 0 .432-.034.585-.103.153-.069.229-.176.229-.321a.304.304 0 0 0-.115-.252c-.076-.069-.229-.126-.458-.172l-.802-.16c-.719-.146-1.23-.36-1.536-.642-.298-.29-.447-.669-.447-1.135 0-.313.095-.611.287-.894.191-.29.485-.523.882-.699.397-.183.905-.275 1.524-.275.581 0 1.093.084 1.536.252.443.168.795.413 1.054.734l-.928 1.054a1.862 1.862 0 0 0-.711-.539c-.29-.13-.58-.194-.871-.194-.183 0-.34.019-.469.057a.577.577 0 0 0-.275.137.308.308 0 0 0-.092.23c0 .099.046.187.137.263.1.069.279.13.539.184l1.043.206c.588.107 1.012.302 1.272.584.26.283.39.623.39 1.02 0 .375-.1.71-.298 1.009-.199.298-.497.535-.894.71-.397.169-.898.253-1.502.253Zm3.705-.115v-8.16h1.948v3.473c.168-.382.409-.669.722-.86a1.989 1.989 0 0 1 1.089-.298c.397 0 .741.076 1.031.23.298.152.531.377.699.675.168.298.252.673.252 1.124V32h-1.948v-3.278c0-.412-.076-.695-.229-.848-.145-.16-.34-.24-.585-.24a1.02 1.02 0 0 0-.515.137.93.93 0 0 0-.379.435c-.091.2-.137.459-.137.78V32h-1.948Zm8.081-6.395c-.398 0-.688-.073-.871-.218-.176-.153-.264-.39-.264-.71 0-.329.088-.566.264-.71.183-.154.473-.23.871-.23.389 0 .676.076.859.23.184.144.275.381.275.71 0 .32-.091.557-.275.71-.183.145-.47.218-.859.218Zm.974.665V32h-1.948v-5.73h1.948Zm1.387 5.73v-5.73h1.742l.103 1.97-.218-.217c.077-.412.21-.756.401-1.031.199-.275.443-.482.734-.62.298-.144.63-.217.997-.217.397 0 .741.076 1.031.23.298.152.531.377.699.675.169.298.253.673.253 1.124V32h-1.949v-3.3c0-.398-.076-.673-.229-.826a.792.792 0 0 0-.584-.23 1.02 1.02 0 0 0-.516.139.864.864 0 0 0-.378.412c-.092.191-.138.447-.138.768V32h-1.948Zm12.654-7.266.16 1.306a.436.436 0 0 0-.137-.023.845.845 0 0 0-.138-.01c-.336 0-.588.083-.756.251a.822.822 0 0 0-.241.608l-.688-.253c0-.313.058-.615.172-.905.115-.29.291-.527.528-.71.244-.184.55-.276.916-.276h.081a.43.43 0 0 1 .103.012Zm-1.972 5.994c.665 0 1.173.141 1.525.424.359.275.538.672.538 1.192 0 .474-.129.867-.389 1.18-.26.313-.627.547-1.1.7-.467.16-1.02.24-1.662.24-1.039 0-1.788-.13-2.247-.39-.458-.26-.687-.61-.687-1.054 0-.32.13-.58.389-.78.26-.198.692-.305 1.296-.32l-.046.183c-.466-.061-.814-.199-1.043-.412-.229-.214-.344-.505-.344-.871 0-.367.145-.665.435-.894.291-.23.677-.356 1.158-.379l.711.333h-.184c-.298.015-.508.065-.63.149-.122.084-.184.187-.184.31 0 .13.054.228.161.297.107.061.267.092.481.092h1.822Zm-1.077 2.475c.367 0 .669-.026.906-.08.244-.046.427-.114.55-.206.122-.084.183-.184.183-.298a.338.338 0 0 0-.126-.275c-.084-.061-.237-.092-.458-.092h-2.052a.537.537 0 0 0-.355.115.371.371 0 0 0-.126.286c0 .176.13.31.389.401.26.1.623.15 1.089.15Zm.069-7.048c.581 0 1.077.076 1.49.23.412.152.726.374.94.664.221.283.332.634.332 1.054 0 .413-.111.764-.332 1.055-.214.29-.528.512-.94.665-.413.145-.909.217-1.49.217-.909 0-1.601-.168-2.074-.504-.466-.336-.7-.814-.7-1.433 0-.42.107-.771.321-1.054.222-.29.539-.512.952-.665.412-.152.913-.229 1.501-.229Zm0 1.112a.888.888 0 0 0-.619.218c-.153.145-.229.351-.229.618 0 .26.076.463.229.608a.888.888 0 0 0 .619.218.87.87 0 0 0 .607-.218c.161-.145.241-.348.241-.608 0-.267-.08-.473-.241-.619a.87.87 0 0 0-.607-.217Z" fill="#494949"/><defs><clipPath id="clip0_4_68"><path fill="#fff" transform="translate(61.667 4.667)" d="M0 0h12.667v12.667H0z"/></clipPath></defs></svg>